<svg xmlns="http://www.w3.org/2000/svg" version="1.1" xmlns:xlink="http://www.w3.org/1999/xlink" xmlns:svgjs="http://svgjs.dev/svgjs" width="1000" height="1000" viewBox="0 0 1000 1000"><rect width="1000" height="1000" fill="#000000"></rect><g transform="matrix(0.7,0,0,0.7,149.57575757575756,408.565412391585)"><svg viewBox="0 0 396 103" data-background-color="#ffffff" preserveAspectRatio="xMidYMid meet" height="260" width="1000" xmlns="http://www.w3.org/2000/svg" xmlns:xlink="http://www.w3.org/1999/xlink"><g id="tight-bounds" transform="matrix(1,0,0,1,0.2400000000000091,0.24594793223485567)"><svg viewBox="0 0 395.52 102.50810413553027" height="102.50810413553027" width="395.52"><g><svg viewBox="0 0 569.6894587323081 147.64812490049889" height="102.50810413553027" width="395.52"><g><rect width="4.371757968297621" height="147.64812490049889" x="158.35330817684394" y="0" fill="#ffffff" opacity="1" stroke-width="0" stroke="transparent" fill-opacity="1" class="rect-bu-0" data-fill-palette-color="primary" rx="1%" id="bu-0" data-palette-color="#ffffff"></rect></g><g transform="matrix(1,0,0,1,174.1694587323081,0.3672838927872988)"><svg viewBox="0 0 395.52 146.9135571149243" height="146.9135571149243" width="395.52"><g><svg viewBox="0 0 395.52 146.9135571149243" height="146.9135571149243" width="395.52"><g><svg viewBox="0 0 395.52 105.510021629416" height="105.510021629416" width="395.52"><g transform="matrix(1,0,0,1,0,0)"><svg width="395.52" viewBox="1.9500000000000002 -33.5 277.39999999999986 71" height="105.510021629416" data-palette-color="#ffffff"><svg></svg><svg></svg><g class="undefined-text-0" data-fill-palette-color="primary" id="text-0"><path d="M13.8 0.5v0c-2.3 0-4.367-0.243-6.2-0.73-1.833-0.48-3.55-1.137-5.15-1.97v0l-0.5-8.65h0.95l4.4 6.8c0.7 0.533 1.527 0.973 2.48 1.32 0.947 0.353 1.937 0.53 2.97 0.53v0c1.7 0 3.127-0.367 4.28-1.1 1.147-0.733 1.72-1.9 1.72-3.5v0c0-0.933-0.207-1.727-0.62-2.38-0.42-0.647-1.23-1.297-2.43-1.95-1.2-0.647-2.983-1.47-5.35-2.47v0c-2.367-0.967-4.183-2.227-5.45-3.78-1.267-1.547-1.9-3.337-1.9-5.37v0c0-1.5 0.383-2.91 1.15-4.23 0.767-1.313 1.783-2.453 3.05-3.42 1.267-0.967 2.693-1.727 4.28-2.28 1.58-0.547 3.187-0.82 4.82-0.82v0c1.8 0 3.567 0.217 5.3 0.65 1.733 0.433 3.267 1.017 4.6 1.75v0l0.5 8h-0.9l-4.15-5.85c-0.767-0.567-1.54-1.01-2.32-1.33-0.787-0.313-1.663-0.47-2.63-0.47v0c-1.3 0-2.373 0.39-3.22 1.17-0.853 0.787-1.28 1.863-1.28 3.23v0c0 0.767 0.2 1.467 0.6 2.1 0.4 0.633 1.083 1.25 2.05 1.85 0.967 0.6 2.317 1.283 4.05 2.05v0c3.067 1.333 5.31 2.783 6.73 4.35 1.413 1.567 2.12 3.517 2.12 5.85v0c0 2.2-0.64 4.09-1.92 5.67-1.287 1.587-2.997 2.813-5.13 3.68-2.133 0.867-4.433 1.3-6.9 1.3zM55.35 0h-18.65v-0.8l4.7-1.65v-22.95h-5.2l-3.95 7.6h-0.8v-10.2h29.15v10.2h-0.75l-4-7.6h-5.2v22.95l4.7 1.65zM79.5 0.5v0c-2.8 0-5.383-0.577-7.75-1.73-2.367-1.147-4.257-2.78-5.67-4.9-1.42-2.113-2.13-4.603-2.13-7.47v0c0-2.3 0.46-4.367 1.38-6.2 0.913-1.833 2.18-3.41 3.8-4.73 1.613-1.313 3.47-2.313 5.57-3 2.1-0.68 4.333-1.02 6.7-1.02v0c2.2 0 4.043 0.2 5.53 0.6 1.48 0.4 2.837 0.883 4.07 1.45v0l0.6 7.75h-0.9l-4.2-6.15c-0.7-0.4-1.367-0.677-2-0.83-0.633-0.147-1.4-0.22-2.3-0.22v0c-2.9 0-5.067 1.15-6.5 3.45-1.433 2.3-2.15 5.317-2.15 9.05v0c0 2.167 0.267 4.1 0.8 5.8 0.533 1.7 1.377 3.04 2.53 4.02 1.147 0.987 2.653 1.48 4.52 1.48v0c0.2 0 0.417-0.017 0.65-0.05v0-7.9l-3.8-2.1v-0.75h16.4v0.75l-3.35 2.1v7.05c-0.733 0.7-1.733 1.317-3 1.85-1.267 0.533-2.657 0.95-4.17 1.25-1.52 0.3-3.063 0.45-4.63 0.45z" fill="#ffffff" fill-rule="nonzero" stroke="none" stroke-width="1" stroke-linecap="butt" stroke-linejoin="miter" stroke-miterlimit="10" stroke-dasharray="" stroke-dashoffset="0" font-family="none" font-weight="none" font-size="none" text-anchor="none" style="mix-blend-mode: normal" data-fill-palette-color="primary" opacity="1"></path><path transform="translate(0,37)" d="M13.8 0.5v0c-2.3 0-4.367-0.243-6.2-0.73-1.833-0.48-3.55-1.137-5.15-1.97v0l-0.5-8.65h0.95l4.4 6.8c0.7 0.533 1.527 0.973 2.48 1.32 0.947 0.353 1.937 0.53 2.97 0.53v0c1.7 0 3.127-0.367 4.28-1.1 1.147-0.733 1.72-1.9 1.72-3.5v0c0-0.933-0.207-1.727-0.62-2.38-0.42-0.647-1.23-1.297-2.43-1.95-1.2-0.647-2.983-1.47-5.35-2.47v0c-2.367-0.967-4.183-2.227-5.45-3.78-1.267-1.547-1.9-3.337-1.9-5.37v0c0-1.5 0.383-2.91 1.15-4.23 0.767-1.313 1.783-2.453 3.05-3.42 1.267-0.967 2.693-1.727 4.28-2.28 1.58-0.547 3.187-0.82 4.82-0.82v0c1.8 0 3.567 0.217 5.3 0.65 1.733 0.433 3.267 1.017 4.6 1.75v0l0.5 8h-0.9l-4.15-5.85c-0.767-0.567-1.54-1.01-2.32-1.33-0.787-0.313-1.663-0.47-2.63-0.47v0c-1.3 0-2.373 0.39-3.22 1.17-0.853 0.787-1.28 1.863-1.28 3.23v0c0 0.767 0.2 1.467 0.6 2.1 0.4 0.633 1.083 1.25 2.05 1.85 0.967 0.6 2.317 1.283 4.05 2.05v0c3.067 1.333 5.31 2.783 6.73 4.35 1.413 1.567 2.12 3.517 2.12 5.85v0c0 2.2-0.64 4.09-1.92 5.67-1.287 1.587-2.997 2.813-5.13 3.68-2.133 0.867-4.433 1.3-6.9 1.3zM47.3 0.5v0c-3.033 0-5.723-0.633-8.07-1.9-2.353-1.267-4.197-3-5.53-5.2-1.333-2.2-2-4.683-2-7.45v0c0-2.767 0.667-5.25 2-7.45 1.333-2.2 3.177-3.933 5.53-5.2 2.347-1.267 5.037-1.9 8.07-1.9v0c3.033 0 5.727 0.633 8.08 1.9 2.347 1.267 4.187 3 5.52 5.2 1.333 2.2 2 4.683 2 7.45v0c0 2.767-0.667 5.25-2 7.45-1.333 2.2-3.173 3.933-5.52 5.2-2.353 1.267-5.047 1.9-8.08 1.9zM47.9-2.15v0c1.1 0 2.05-0.467 2.85-1.4 0.8-0.933 1.417-2.2 1.85-3.8 0.433-1.6 0.65-3.417 0.65-5.45v0c0-2.533-0.273-4.793-0.82-6.78-0.553-1.98-1.313-3.547-2.28-4.7-0.967-1.147-2.067-1.72-3.3-1.72v0c-1.067 0-2.017 0.467-2.85 1.4-0.833 0.933-1.473 2.2-1.92 3.8-0.453 1.6-0.68 3.417-0.68 5.45v0c0 2.5 0.283 4.75 0.85 6.75 0.567 2 1.343 3.573 2.33 4.72 0.98 1.153 2.087 1.73 3.32 1.73zM92.45 0h-26.3v-0.8l3.8-1.65v-23.1l-3.8-1.65v-0.8h17.25v0.8l-4.2 1.65v22.95h8.2l4.25-8.8h0.8zM113.75 0.5v0c-2.667 0-5.057-0.4-7.17-1.2-2.12-0.8-3.78-2.16-4.98-4.08-1.2-1.913-1.8-4.52-1.8-7.82v0-12.9l-3.85-1.7v-0.8h16.95v0.8l-3.85 1.7v13.25c0 2.3 0.333 4.117 1 5.45 0.667 1.333 1.583 2.273 2.75 2.82 1.167 0.553 2.467 0.83 3.9 0.83v0c1.3 0 2.493-0.25 3.58-0.75 1.08-0.5 1.947-1.31 2.6-2.43 0.647-1.113 0.97-2.587 0.97-4.42v0-14.85l-3.85-1.6v-0.8h11v0.8l-3.85 1.65v13.8c0 4.167-1.117 7.25-3.35 9.25-2.233 2-5.583 3-10.05 3zM157.9 0h-18.65v-0.8l4.7-1.65v-22.95h-5.2l-3.95 7.6h-0.8v-10.2h29.15v10.2h-0.75l-4-7.6h-5.2v22.95l4.7 1.65zM182.45 0h-16.3v-0.8l3.35-1.65v-23.1l-3.35-1.65v-0.8h16.3v0.8l-3.7 1.65v23.1l3.7 1.65zM201.3 0.5v0c-3.033 0-5.723-0.633-8.07-1.9-2.353-1.267-4.197-3-5.53-5.2-1.333-2.2-2-4.683-2-7.45v0c0-2.767 0.667-5.25 2-7.45 1.333-2.2 3.177-3.933 5.53-5.2 2.347-1.267 5.037-1.9 8.07-1.9v0c3.033 0 5.727 0.633 8.08 1.9 2.347 1.267 4.187 3 5.52 5.2 1.333 2.2 2 4.683 2 7.45v0c0 2.767-0.667 5.25-2 7.45-1.333 2.2-3.173 3.933-5.52 5.2-2.353 1.267-5.047 1.9-8.08 1.9zM201.9-2.15v0c1.1 0 2.05-0.467 2.85-1.4 0.8-0.933 1.417-2.2 1.85-3.8 0.433-1.6 0.65-3.417 0.65-5.45v0c0-2.533-0.273-4.793-0.82-6.78-0.553-1.98-1.313-3.547-2.28-4.7-0.967-1.147-2.067-1.72-3.3-1.72v0c-1.067 0-2.017 0.467-2.85 1.4-0.833 0.933-1.473 2.2-1.92 3.8-0.453 1.6-0.68 3.417-0.68 5.45v0c0 2.5 0.283 4.75 0.85 6.75 0.567 2 1.343 3.573 2.33 4.72 0.98 1.153 2.087 1.73 3.32 1.73zM232.45 0h-12.3v-0.85l3.8-1.65v-23.05l-3.8-1.65v-0.8h10.4l16.45 17.2v-14.75l-5.25-1.65v-0.8h12.2v0.8l-3.7 1.65v25.75h-4.55l-18.5-19.15v16.45l5.25 1.65zM267.45 0.5v0c-1.933 0-3.683-0.217-5.25-0.65-1.567-0.433-3.017-0.983-4.35-1.65v0l-0.45-7.35h0.8l4.3 6c1.367 0.7 2.85 1.05 4.45 1.05v0c1.467 0 2.643-0.267 3.53-0.8 0.88-0.533 1.32-1.317 1.32-2.35v0c0-0.767-0.2-1.4-0.6-1.9-0.4-0.5-1.123-1.017-2.17-1.55-1.053-0.533-2.547-1.25-4.48-2.15v0c-2.033-0.933-3.583-2.093-4.65-3.48-1.067-1.38-1.6-3.02-1.6-4.92v0c0-1.7 0.517-3.26 1.55-4.68 1.033-1.413 2.41-2.537 4.13-3.37 1.713-0.833 3.587-1.25 5.62-1.25v0c1.633 0 3.167 0.173 4.6 0.52 1.433 0.353 2.7 0.863 3.8 1.53v0l0.45 6.95h-0.8l-4.65-5.9c-0.833-0.333-1.85-0.5-3.05-0.5v0c-1.1 0-2.017 0.29-2.75 0.87-0.733 0.587-1.1 1.397-1.1 2.43v0c0 0.633 0.177 1.19 0.53 1.67 0.347 0.487 0.937 0.98 1.77 1.48 0.833 0.5 1.967 1.1 3.4 1.8v0c2.567 1.267 4.467 2.583 5.7 3.95 1.233 1.367 1.85 3.1 1.85 5.2v0c0 1.867-0.523 3.473-1.57 4.82-1.053 1.353-2.48 2.397-4.28 3.13-1.8 0.733-3.817 1.1-6.05 1.1zM261.55-3.75l-0.5-0.45c0.167 0.167 0.333 0.317 0.5 0.45z" fill="#ffffff" fill-rule="nonzero" stroke="none" stroke-width="1" stroke-linecap="butt" stroke-linejoin="miter" stroke-miterlimit="10" stroke-dasharray="" stroke-dashoffset="0" font-family="none" font-weight="none" font-size="none" text-anchor="none" style="mix-blend-mode: normal" data-fill-palette-color="primary" opacity="1"></path></g></svg></g></svg></g><g transform="matrix(1,0,0,1,0,116.95441421658255)"><svg viewBox="0 0 209.7780155509955 29.959142898341746" height="29.959142898341746" width="209.7780155509955"><g transform="matrix(1,0,0,1,0,0)"><svg width="209.7780155509955" viewBox="2.45 -35.3 327.67 46.8" height="29.959142898341746" data-palette-color="#89939e"><path d="M15.55 0L2.45 0 2.45-0.8 6.6-2.85 6.6-30.1 2.5-32.2 2.5-33 11.1-33 30.4-10.2 30.4-30.25 25-32.2 25-33 38-33 38-32.2 33.9-30.2 33.9 0.25 31.3 0.25 10.1-24.65 10.1-2.8 15.55-0.8 15.55 0ZM53.45 0.5L53.45 0.5Q48.45 0.5 45.52-2.45 42.6-5.4 42.6-10.3L42.6-10.3Q42.6-14.1 44.2-17 45.8-19.9 48.42-21.55 51.05-23.2 54.25-23.2L54.25-23.2Q58.25-23.2 60.5-20.45 62.75-17.7 62.8-12.7L62.8-12.7 62.6-12.45 48.2-12.45Q48.2-10.2 49-8.33 49.8-6.45 51.6-5.33 53.4-4.2 56.35-4.2L56.35-4.2Q57.75-4.2 59.35-4.6 60.95-5 62.7-5.95L62.7-5.95 62.85-5.95 62.85-5.25Q61.65-2.8 59.2-1.15 56.75 0.5 53.45 0.5ZM53.25-20.95L53.25-20.95Q51.25-20.95 49.95-19.3 48.65-17.65 48.3-14.7L48.3-14.7 57.95-14.7Q57.5-18.15 56.3-19.55 55.1-20.95 53.25-20.95ZM77.59 0L76.05 0 66.7-20.45 63.5-21.9 63.5-22.7 76.7-22.7 76.7-21.9 73-20.4 73-20.2 78.7-7.9 78.9-7.9 83.95-19.95 83.95-20.2 80.59-21.9 80.59-22.7 90.4-22.7 90.4-21.9 86.8-20.15 77.59 0ZM101.89 0.5L101.89 0.5Q96.89 0.5 93.97-2.45 91.04-5.4 91.04-10.3L91.04-10.3Q91.04-14.1 92.64-17 94.24-19.9 96.87-21.55 99.49-23.2 102.69-23.2L102.69-23.2Q106.69-23.2 108.94-20.45 111.19-17.7 111.24-12.7L111.24-12.7 111.04-12.45 96.64-12.45Q96.64-10.2 97.44-8.33 98.24-6.45 100.04-5.33 101.84-4.2 104.79-4.2L104.79-4.2Q106.19-4.2 107.79-4.6 109.39-5 111.14-5.95L111.14-5.95 111.29-5.95 111.29-5.25Q110.09-2.8 107.64-1.15 105.19 0.5 101.89 0.5ZM101.69-20.95L101.69-20.95Q99.69-20.95 98.39-19.3 97.09-17.65 96.74-14.7L96.74-14.7 106.39-14.7Q105.94-18.15 104.74-19.55 103.54-20.95 101.69-20.95ZM128.34 0L115.49 0 115.49-0.8 118.74-2.4 118.74-17.3 115.64-19.75 115.64-20.25 123.54-23.2 123.99-23.2 124.44-18.8 124.69-18.8Q125.89-20.7 126.84-21.65 127.79-22.6 128.67-22.9 129.54-23.2 130.44-23.2L130.44-23.2Q130.84-23.2 131.34-23.05 131.84-22.9 132.24-22.75L132.24-22.75Q133.74-22.25 133.74-21.35L133.74-21.35Q133.74-20.95 133.59-20.5L133.59-20.5 132.44-17.55 132.09-17.55 130.54-18.15Q129.84-18.4 129.31-18.48 128.79-18.55 128.14-18.55L128.14-18.55Q126.04-18.55 124.49-16.5L124.49-16.5 124.49-2.4 128.34-0.8 128.34 0ZM166.49 0.5L166.49 0.5Q162.89 0.5 159.78-0.7 156.69-1.9 154.39-4.1 152.09-6.3 150.78-9.25 149.49-12.2 149.49-15.7L149.49-15.7Q149.49-19.55 150.96-22.8 152.44-26.05 154.99-28.45 157.53-30.85 160.86-32.18 164.19-33.5 167.89-33.5L167.89-33.5Q170.54-33.5 172.41-33.2 174.29-32.9 175.76-32.35 177.24-31.8 178.69-31.1L178.69-31.1 179.09-22.55 178.24-22.55 174.14-29.05Q172.44-30.15 171.09-30.6 169.74-31.05 167.99-31.05L167.99-31.05Q164.59-31.05 161.84-29.3 159.09-27.55 157.49-24.45 155.89-21.35 155.89-17.3L155.89-17.3Q155.89-12.6 157.51-9.25 159.14-5.9 161.86-4.1 164.59-2.3 167.94-2.3L167.94-2.3Q169.09-2.3 170.34-2.43 171.59-2.55 172.84-2.9L172.84-2.9 172.84-11.8 168.39-14 168.39-14.8 182.74-14.8 182.74-14 179.09-11.7 179.09-3.7Q177.59-2.4 175.44-1.48 173.29-0.55 170.96-0.03 168.64 0.5 166.49 0.5ZM192.73-28.55L192.73-28.55Q191.28-28.55 190.33-29.53 189.38-30.5 189.38-31.95L189.38-31.95Q189.38-33.4 190.33-34.35 191.28-35.3 192.73-35.3L192.73-35.3Q194.18-35.3 195.16-34.35 196.13-33.4 196.13-31.95L196.13-31.95Q196.13-30.5 195.16-29.53 194.18-28.55 192.73-28.55ZM198.83 0L186.73 0 186.73-0.8 189.98-2.4 189.98-17.5 186.88-19.9 186.88-20.45 195.28-23.2 195.78-23.2 195.78-2.4 198.83-0.8 198.83 0ZM213.48 0L211.93 0 202.58-20.45 199.38-21.9 199.38-22.7 212.58-22.7 212.58-21.9 208.88-20.4 208.88-20.2 214.58-7.9 214.78-7.9 219.83-19.95 219.83-20.2 216.48-21.9 216.48-22.7 226.28-22.7 226.28-21.9 222.68-20.15 213.48 0ZM237.78 0.5L237.78 0.5Q232.78 0.5 229.85-2.45 226.93-5.4 226.93-10.3L226.93-10.3Q226.93-14.1 228.53-17 230.13-19.9 232.75-21.55 235.38-23.2 238.58-23.2L238.58-23.2Q242.58-23.2 244.83-20.45 247.08-17.7 247.13-12.7L247.13-12.7 246.93-12.45 232.53-12.45Q232.53-10.2 233.33-8.33 234.13-6.45 235.93-5.33 237.73-4.2 240.68-4.2L240.68-4.2Q242.08-4.2 243.68-4.6 245.28-5 247.03-5.95L247.03-5.95 247.18-5.95 247.18-5.25Q245.98-2.8 243.53-1.15 241.08 0.5 237.78 0.5ZM237.58-20.95L237.58-20.95Q235.58-20.95 234.28-19.3 232.98-17.65 232.63-14.7L232.63-14.7 242.28-14.7Q241.83-18.15 240.63-19.55 239.43-20.95 237.58-20.95ZM282.62 0.5L282.62 0.5Q278.52 0.5 275.37-0.9 272.22-2.3 270.42-5.4 268.62-8.5 268.62-13.6L268.62-13.6 268.62-30.15 264.42-32.2 264.42-33 279.07-33 279.07-32.2 274.92-30.15 274.92-13.9Q274.92-9.8 276.22-7.38 277.52-4.95 279.7-3.93 281.87-2.9 284.57-2.9L284.57-2.9Q286.77-2.9 288.65-3.83 290.52-4.75 291.67-6.78 292.82-8.8 292.82-12.15L292.82-12.15 292.82-30.25 288.02-32.2 288.02-33 300.47-33 300.47-32.2 296.32-30.2 296.32-13.6Q296.32-8.5 294.57-5.4 292.82-2.3 289.72-0.9 286.62 0.5 282.62 0.5ZM317.82 11.5L305.02 11.5 305.02 10.7 308.27 9.1 308.27-17.3 305.17-19.75 305.17-20.25 313.07-23.2 313.57-23.2 313.97-20.15 314.27-20.15Q316.12-21.75 317.87-22.48 319.62-23.2 321.62-23.2L321.62-23.2Q323.97-23.2 325.9-21.88 327.82-20.55 328.97-18.13 330.12-15.7 330.12-12.35L330.12-12.35Q330.12-8.3 328.55-5.43 326.97-2.55 324.35-1.03 321.72 0.5 318.62 0.5L318.62 0.5Q316.02 0.5 314.07 0L314.07 0 314.07 9.1 317.82 10.7 317.82 11.5ZM318.07-19.35L318.07-19.35Q316.17-19.35 314.07-18.15L314.07-18.15 314.07-3.85Q316.02-2 319.02-2L319.02-2Q320.42-2 321.62-2.8 322.82-3.6 323.6-5.53 324.37-7.45 324.37-10.8L324.37-10.8Q324.37-15.2 322.47-17.28 320.57-19.35 318.07-19.35Z" opacity="1" transform="matrix(1,0,0,1,0,0)" fill="#ffffff" class="undefined-text-1" data-fill-palette-color="secondary" id="text-1"></path></svg></g></svg></g></svg></g></svg></g><g transform="matrix(1,0,0,1,0,0.3672838927872988)"><svg viewBox="0 0 146.90891558967738 146.9135571149243" height="146.9135571149243" width="146.90891558967738"><g><svg xmlns="http://www.w3.org/2000/svg" xmlns:xlink="http://www.w3.org/1999/xlink" version="1.1" x="0" y="0" viewBox="18.351000000000017 18.348 63.30200000000001 63.304" enable-background="new 0 0 100 100" xml:space="preserve" height="146.9135571149243" width="146.90891558967738" class="icon-icon-0" data-fill-palette-color="accent" id="icon-0"><g fill="#ffffff" data-fill-palette-color="accent"><path fill="#ffffff" d="M80.951 48.597c-4.329-3.261-9.009-4.911-13.907-4.911-0.107 0-0.213 0-0.32 0.002-0.104-0.002-0.212-0.002-0.318-0.002-0.431 0-0.857 0.029-1.283 0.054 0.399-0.354 0.792-0.717 1.168-1.103 3.598-3.496 5.814-8.047 6.587-13.531 0.078-0.548-0.105-1.098-0.496-1.487-0.391-0.39-0.941-0.573-1.488-0.497-5.482 0.773-10.035 2.99-13.529 6.589-0.384 0.373-0.744 0.764-1.097 1.161 0.032-0.53 0.054-1.062 0.046-1.597 0.073-5.016-1.579-9.801-4.91-14.227-0.331-0.44-0.851-0.7-1.401-0.7-0.552 0-1.072 0.26-1.404 0.7-3.33 4.425-4.981 9.211-4.909 14.227-0.008 0.535 0.014 1.066 0.045 1.597-0.352-0.396-0.713-0.788-1.097-1.161-3.493-3.599-8.045-5.816-13.529-6.589-0.549-0.076-1.098 0.107-1.487 0.497-0.39 0.391-0.574 0.941-0.498 1.487 0.774 5.484 2.99 10.036 6.588 13.531 0.375 0.386 0.769 0.748 1.168 1.103-0.427-0.024-0.854-0.054-1.284-0.054-0.107 0-0.213 0-0.319 0.002-0.106-0.002-0.212-0.002-0.321-0.002-4.898 0-9.577 1.65-13.905 4.911-0.44 0.332-0.7 0.851-0.7 1.402 0 0.553 0.259 1.071 0.7 1.403 4.329 3.26 9.008 4.91 13.908 4.91 0.106 0 0.212 0 0.318-0.002 0.106 0.002 0.223-0.006 0.318 0.002 0.432 0 0.859-0.029 1.288-0.053-0.399 0.354-0.793 0.717-1.168 1.104-3.599 3.494-5.816 8.047-6.59 13.529-0.077 0.547 0.107 1.096 0.498 1.486 0.331 0.332 0.779 0.516 1.242 0.516 0.081 0 0.163-0.006 0.246-0.018 5.484-0.773 10.036-2.99 13.529-6.588 0.384-0.373 0.745-0.766 1.097-1.162-0.031 0.531-0.053 1.062-0.045 1.598-0.073 5.016 1.579 9.801 4.909 14.227 0.332 0.441 0.853 0.701 1.404 0.701 0.551 0 1.07-0.26 1.402-0.701 3.33-4.426 4.982-9.211 4.909-14.227 0.008-0.535-0.014-1.066-0.046-1.596 0.353 0.396 0.712 0.789 1.097 1.16 3.494 3.598 8.046 5.814 13.529 6.588 0.082 0.012 0.165 0.018 0.246 0.018 0.461 0 0.91-0.184 1.242-0.516 0.391-0.391 0.574-0.939 0.496-1.486-0.772-5.484-2.99-10.037-6.588-13.529-0.375-0.387-0.77-0.75-1.169-1.104 0.428 0.023 0.855 0.053 1.286 0.053 0.107 0 0.213 0 0.317-0.002 0.106 0.002 0.213 0.002 0.318 0.002 0.001 0 0 0 0.001 0 4.899 0 9.579-1.65 13.908-4.91 0.44-0.332 0.7-0.85 0.7-1.403C81.651 49.448 81.392 48.929 80.951 48.597zM48.784 49.509l1.217-1.215 1.214 1.215-1.214 1.215L48.784 49.509zM59.828 36.215c0.013-0.014 0.026-0.027 0.039-0.04 2.41-2.489 5.449-4.198 9.058-5.099-0.901 3.607-2.61 6.646-5.099 9.057-0.014 0.012-0.027 0.027-0.04 0.04-2.411 2.489-5.449 4.198-9.057 5.099C55.63 41.665 57.339 38.624 59.828 36.215zM47.2 33.247c-0.054-3.464 0.886-6.822 2.801-10.009 1.914 3.187 2.854 6.545 2.799 10.008 0 0.02 0 0.039 0 0.058 0.056 3.463-0.885 6.82-2.799 10.008-1.915-3.188-2.854-6.544-2.801-10.009C47.2 33.285 47.2 33.266 47.2 33.247zM31.077 31.076c3.608 0.9 6.647 2.609 9.056 5.099 0.014 0.013 0.027 0.026 0.04 0.04 2.489 2.409 4.199 5.448 5.098 9.057-3.606-0.901-6.646-2.61-9.057-5.101-0.013-0.013-0.027-0.026-0.039-0.039C33.686 37.722 31.977 34.684 31.077 31.076zM33.303 52.799c-0.009 0-0.018 0-0.027 0s-0.019 0-0.029 0c-0.096 0.002-0.192 0.004-0.289 0.004-3.361 0-6.62-0.941-9.72-2.803 3.099-1.861 6.358-2.801 9.717-2.801 0.098 0 0.195 0 0.292 0.002 0.019 0.001 0.038 0.001 0.056 0 0.098-0.002 0.195-0.002 0.292-0.002 3.359 0 6.619 0.939 9.717 2.801-3.099 1.862-6.359 2.803-9.719 2.803C33.496 52.803 33.399 52.801 33.303 52.799zM40.174 63.785c-0.014 0.014-0.027 0.025-0.041 0.039-2.409 2.488-5.448 4.197-9.056 5.1 0.899-3.607 2.608-6.646 5.098-9.059 0.013-0.012 0.026-0.025 0.041-0.039 2.409-2.488 5.448-4.197 9.056-5.098C44.371 58.336 42.662 61.375 40.174 63.785zM52.8 66.752c0.056 3.465-0.885 6.822-2.799 10.01-1.915-3.188-2.854-6.545-2.801-10.01 0-0.02 0-0.037 0-0.055-0.054-3.465 0.886-6.822 2.801-10.01 1.914 3.188 2.854 6.545 2.799 10.01C52.8 66.715 52.8 66.732 52.8 66.752zM68.924 68.924c-3.607-0.902-6.646-2.611-9.058-5.098-0.013-0.014-0.025-0.027-0.038-0.041-2.489-2.41-4.198-5.449-5.099-9.057 3.607 0.9 6.646 2.609 9.056 5.098 0.014 0.014 0.026 0.027 0.04 0.039C66.314 62.277 68.022 65.314 68.924 68.924zM67.042 52.803c-0.096 0-0.192-0.002-0.289-0.004-0.01 0-0.02 0-0.029 0-0.009 0-0.018 0-0.028 0-0.096 0.002-0.192 0.004-0.289 0.004-3.361 0-6.62-0.941-9.718-2.803 3.098-1.861 6.356-2.801 9.717-2.801 0.097 0 0.194 0 0.29 0.002 0.02 0.001 0.039 0.001 0.058 0 0.097-0.002 0.194-0.002 0.291-0.002 3.36 0 6.62 0.939 9.718 2.801C73.664 51.861 70.404 52.803 67.042 52.803z" data-fill-palette-color="accent"></path><circle fill="#ffffff" cx="66.725" cy="50" r="2.3" data-fill-palette-color="accent"></circle><circle fill="#ffffff" cx="33.276" cy="50" r="2.3" data-fill-palette-color="accent"></circle><circle fill="#ffffff" cx="50" cy="66.725" r="2.3" data-fill-palette-color="accent"></circle><circle fill="#ffffff" cx="50" cy="33.275" r="2.3" data-fill-palette-color="accent"></circle><circle fill="#ffffff" cx="61.827" cy="61.825" r="2.3" data-fill-palette-color="accent"></circle><circle fill="#ffffff" cx="38.174" cy="38.174" r="2.3" data-fill-palette-color="accent"></circle><circle fill="#ffffff" cx="38.174" cy="61.825" r="2.3" data-fill-palette-color="accent"></circle><circle fill="#ffffff" cx="61.827" cy="38.174" r="2.3" data-fill-palette-color="accent"></circle></g></svg></g></svg></g></svg></g><defs></defs></svg><rect width="395.52" height="102.50810413553027" fill="none" stroke="none" visibility="hidden"></rect></g></svg></g></svg>